{"title":"Teen Wolf Season 4 EP5 I.E.D. WEB-DL","uid":10610877,"size":532957997,"categoryP":"video","categoryS":"tv_shows","magnet":"?xt=urn:btih:8c566b632dc155829488e95ba68334f5c07430dd&amp;dn=Teen+Wolf+Season+4+EP5+I.E.D.+WEB-DL&amp;tr=udp%3A%2F%2Ftracker.openbittorrent.com%3A80&amp;tr=udp%3A%2F%2Fopen.demonii.com%3A1337&amp;tr=udp%3A%2F%2Ftracker.coppersurfer.tk%3A6969&amp;tr=udp%3A%2F%2Fexodus.desync.com%3A6969","seeders":6,"leechers":0,"uploader":"jmanwf","files":1,"time":1405988663,"description":"Scott, Stiles and Kira take part in a Lacrosse game. Lydia needs help to control her powers.\n\n\nEpisode Info\n\nEpisode number: 4x5\nAirdate: Monday July 21st, 2014\n\n\n\nFormat : MPEG-4\nFormat profile : Base Media / Version 2\nCodec ID : mp42\nFile size : 508 MiB\nDuration : 41mn 56s\nOverall bit rate mode : Variable\nOverall bit rate : 1 695 Kbps\nMovie name : I.E.D.\nAlbum : Teen Wolf, Season 4\nPerformer : Teen Wolf\nGenre : Sci-Fi &amp; Fantasy\n help with her powers\nRecorded date : UTC 2014-07-21 07:00:00\nEncoded date : UTC 2014-07-22 08:20:48\nTagged date : UTC 2014-07-22 09:04:27\nWriting application : HandBrake 0.9.9 2013052900\n\n\nVideo\nID : 1\nFormat : AVC\nFormat/Info : Advanced Video Codec\nFormat profile : &lt;a class=&quot;__cf_email__&quot; href=&quot;/cdn-cgi/l/email-protection&quot; data-cfemail=&quot;94d9f5fdfad4d8a0baa4&quot;&gt;[email&amp;#160;protected]&lt;/a&gt;&lt;script cf-hash='f9e31' type=&quot;text/javascript&quot;&gt;\n/* &lt;![CDATA[ */!function(){try{var t=&quot;currentScript&quot;in document?document.currentScript:function(){for(var t=document.getElementsByTagName(&quot;script&quot;),e=t.length;e--;)if(t[e].getAttribute(&quot;cf-hash&quot;))return t[e]}();if(t&amp;&amp;t.previousSibling){var e,r,n,i,c=t.previousSibling,a=c.getAttribute(&quot;data-cfemail&quot;);if(a){for(e=&quot;&quot;,r=parseInt(a.substr(0,2),16),n=2;a.length-n;n+=2)i=parseInt(a.substr(n,2),16)^r,e+=String.fromCharCode(i);e=document.createTextNode(e),c.parentNode.replaceChild(e,c)}}}catch(u){}}();/* ]]&gt; */&lt;/script&gt;\nFormat settings, CABAC : Yes\nFormat settings, ReFrames : 4 frames\nCodec ID : avc1\nCodec ID/Info : Advanced Video Coding\nDuration : 41mn 56s\nBit rate : 1 578 Kbps\nWidth : 1 280 pixels\nHeight : 720 pixels\nDisplay aspect ratio : 16:9\nFrame rate mode : Variable\nFrame rate : 23.976 fps\nMinimum frame rate : 11.989 fps\nMaximum frame rate : 23.981 fps\nColor space : YUV\nChroma subsampling : 4:2:0\nBit depth : 8 bits\nScan type : Progressive\nBits/(Pixel*Frame) : 0.071\nStream size : 473 MiB (93%)\nWriting library : x264 core 130 r2273 b3065e6\n\nEncoded date : UTC 2014-07-22 08:20:48\nTagged date : UTC 2014-07-22 09:04:27\nColor primaries : BT.709\nTransfer characteristics : BT.709\nMatrix coefficients : BT.709\n\nAudio\nID : 2\nFormat : AAC\nFormat/Info : Advanced Audio Codec\nFormat profile : LC\nCodec ID : 40\nDuration : 41mn 56s\nBit rate mode : Variable\nBit rate : 112 Kbps\nMaximum bit rate : 227 Kbps\nChannel(s) : 2 channels\nChannel positions : Front: L R\nSampling rate : 48.0 KHz\nCompression mode : Lossy\nStream size : 33.6 MiB (7%)\nLanguage : English\nEncoded date : UTC 2014-07-22 08:20:48\nTagged date : UTC 2014-07-22 09:04:26\n\n\n\nNO TV LOGOS ON SCREEN","torrent":{"xt":"urn:btih:8c566b632dc155829488e95ba68334f5c07430dd","amp;dn":"Teen+Wolf+Season+4+EP5+I.E.D.+WEB-DL","amp;tr":["udp%3A%2F%2Ftracker.openbittorrent.com%3A80","udp%3A%2F%2Fopen.demonii.com%3A1337","udp%3A%2F%2Ftracker.coppersurfer.tk%3A6969","udp%3A%2F%2Fexodus.desync.com%3A6969"],"infoHash":"8c566b632dc155829488e95ba68334f5c07430dd","infoHashBuffer":{"type":"Buffer","data":[140,86,107,99,45,193,85,130,148,136,233,91,166,131,52,245,192,116,48,221]},"announce":[],"urlList":[]}}